<svg width="212" height="50" viewBox="0 0 212 50" fill="none" xmlns="http://www.w3.org/2000/svg">
<g filter="url(#filter0_d_1622_5)">
<path d="M6.38477 2.67383C7.25977 2.89258 8.09375 3.05664 8.88672 3.16602C9.67969 3.27539 10.377 3.35742 10.9785 3.41211C11.6895 3.49414 12.3457 3.52148 12.9473 3.49414C13.7129 3.49414 14.6699 3.42578 15.8184 3.28906C16.9941 3.15234 18.1973 3.0293 19.4277 2.91992C20.6582 2.7832 21.834 2.70117 22.9551 2.67383C24.1035 2.61914 25.0332 2.6875 25.7441 2.87891C26.4551 3.04297 27.1797 3.30273 27.918 3.6582C28.6836 3.98633 29.3809 4.41016 30.0098 4.92969C30.6387 5.42188 31.1582 6.00977 31.5684 6.69336C31.9785 7.34961 32.2109 8.10156 32.2656 8.94922C32.2383 10.0156 31.9922 11.0137 31.5273 11.9434C31.1445 12.7363 30.502 13.5566 29.5996 14.4043C28.6973 15.2246 27.3984 15.8535 25.7031 16.291C26.5508 16.4004 27.2754 16.5918 27.877 16.8652C28.5059 17.1113 29.0391 17.4121 29.4766 17.7676C29.9414 18.0957 30.3105 18.4648 30.584 18.875C30.8848 19.2852 31.1172 19.6953 31.2812 20.1055C31.6914 21.0625 31.8828 22.1289 31.8555 23.3047C31.6914 24.8359 31.377 26.0527 30.9121 26.9551C30.4746 27.8574 29.9688 28.5547 29.3945 29.0469C28.8203 29.5391 28.2324 29.8809 27.6309 30.0723C27.0293 30.2637 26.4824 30.4141 25.9902 30.5234C25.498 30.6328 24.8965 30.6875 24.1855 30.6875C23.4746 30.6875 22.709 30.6738 21.8887 30.6465C21.0957 30.5918 20.2754 30.5508 19.4277 30.5234C18.5801 30.4688 17.7734 30.4688 17.0078 30.5234C16.3789 30.5781 15.6133 30.6328 14.7109 30.6875C13.9453 30.7422 12.9883 30.8105 11.8398 30.8926C10.6914 30.9473 9.35156 31.0156 7.82031 31.0977C8.12109 30.8789 8.36719 30.6328 8.55859 30.3594C8.77734 30.0586 8.95508 29.7988 9.0918 29.5801C9.22852 29.3066 9.35156 29.0469 9.46094 28.8008C9.54297 28.582 9.61133 27.9805 9.66602 26.9961C9.7207 26.0117 9.76172 24.8359 9.78906 23.4688C9.81641 22.0742 9.83008 20.584 9.83008 18.998C9.85742 17.3848 9.84375 15.8398 9.78906 14.3633C9.76172 12.8594 9.70703 11.5332 9.625 10.3848C9.57031 9.20898 9.48828 8.36133 9.37891 7.8418C9.21484 7.26758 8.99609 6.67969 8.72266 6.07812C8.50391 5.55859 8.18945 4.99805 7.7793 4.39648C7.39648 3.79492 6.93164 3.2207 6.38477 2.67383ZM15.0391 6.85742C15.0391 6.9668 15.0527 7.33594 15.0801 7.96484C15.1074 8.51172 15.1348 9.35938 15.1621 10.5078C15.2168 11.6289 15.2852 13.2285 15.3672 15.3066C16.0508 15.6074 16.7207 15.7715 17.377 15.7988C18.0332 15.7988 18.6211 15.7715 19.1406 15.7168C19.7422 15.6348 20.3164 15.498 20.8633 15.3066C21.6016 15.0059 22.1758 14.5137 22.5859 13.8301C23.0234 13.1465 23.3105 12.4355 23.4473 11.6973C23.6113 10.9316 23.6523 10.2207 23.5703 9.56445C23.4883 8.88086 23.3105 8.38867 23.0371 8.08789C22.5176 7.62305 21.875 7.24023 21.1094 6.93945C20.4531 6.69336 19.6191 6.5293 18.6074 6.44727C17.623 6.33789 16.4336 6.47461 15.0391 6.85742ZM14.834 26.2988C15.8457 26.8184 16.7344 27.1602 17.5 27.3242C18.2656 27.4883 18.9082 27.5703 19.4277 27.5703C20.0293 27.5703 20.5488 27.4883 20.9863 27.3242C21.5059 27.0781 22.0117 26.75 22.5039 26.3398C23.0234 25.9023 23.4062 25.3965 23.6523 24.8223C23.9258 24.2207 24.0352 23.5645 23.9805 22.8535C23.9258 22.1152 23.6113 21.3086 23.0371 20.4336C22.5176 19.8047 21.8887 19.3125 21.1504 18.957C20.4941 18.6562 19.6602 18.4648 18.6484 18.3828C17.6641 18.3008 16.4473 18.5332 14.998 19.0801L14.834 26.2988ZM37.2285 15.3887C37.3652 15.2246 37.4473 14.9238 37.4746 14.4863C37.5293 14.0215 37.6387 13.502 37.8027 12.9277C37.9941 12.3535 38.3086 11.752 38.7461 11.123C39.1836 10.4941 39.8945 9.90625 40.8789 9.35938C41.8359 8.8125 42.7656 8.48438 43.668 8.375C44.5703 8.26562 45.4316 8.30664 46.252 8.49805C47.0723 8.68945 47.8379 8.99023 48.5488 9.40039C49.2871 9.81055 49.957 10.2617 50.5586 10.7539C50.9688 11.082 51.2969 11.5605 51.543 12.1895C51.7891 12.791 51.9805 13.4746 52.1172 14.2402C52.2539 15.0059 52.3496 15.8125 52.4043 16.6602C52.4863 17.4805 52.541 18.2871 52.5684 19.0801C52.5957 19.8457 52.6094 20.5566 52.6094 21.2129C52.6367 21.8418 52.6914 22.3613 52.7734 22.7715C52.8828 23.373 53.0742 23.8926 53.3477 24.3301C53.6211 24.7402 53.9219 25.0957 54.25 25.3965C54.5781 25.6699 54.9062 25.8887 55.2344 26.0527C55.5625 26.2168 55.8496 26.3398 56.0957 26.4219C56.2598 26.5039 56.4102 26.5586 56.5469 26.5859C56.8203 26.6953 57.0117 26.6953 57.1211 26.5859C56.957 26.9688 56.8066 27.2969 56.6699 27.5703C56.5332 27.8438 56.4238 28.0762 56.3418 28.2676C56.2324 28.4863 56.1367 28.6641 56.0547 28.8008C55.9727 28.9648 55.877 29.1152 55.7676 29.252C55.6855 29.3887 55.5762 29.5391 55.4395 29.7031C55.3027 29.8672 55.166 30.0449 55.0293 30.2363C54.6738 30.0996 54.332 29.9355 54.0039 29.7441C53.7031 29.5527 53.4297 29.375 53.1836 29.2109C52.8828 29.0195 52.6094 28.8281 52.3633 28.6367C52.1172 28.4453 51.8848 28.2266 51.666 27.9805C51.4746 27.7617 51.2695 27.5293 51.0508 27.2832C50.8594 27.0371 50.6953 26.7637 50.5586 26.4629C50.3945 26.8184 49.998 27.3242 49.3691 27.9805C48.7676 28.6367 47.9746 29.2383 46.9902 29.7852C46.0059 30.3047 44.8574 30.6738 43.5449 30.8926C42.2598 31.1113 40.8379 30.9609 39.2793 30.4414C38.5957 30.2227 37.9531 29.9082 37.3516 29.498C36.75 29.0605 36.2305 28.541 35.793 27.9395C35.3828 27.3379 35.082 26.6543 34.8906 25.8887C34.7266 25.0957 34.7402 24.2207 34.9316 23.2637C35.123 22.3066 35.4648 21.5 35.957 20.8438C36.4492 20.1875 37.0371 19.6543 37.7207 19.2441C38.4043 18.834 39.1699 18.5195 40.0176 18.3008C40.8652 18.082 41.7402 17.9316 42.6426 17.8496C43.3535 17.8223 44.0645 17.8633 44.7754 17.9727C45.377 18.082 46.0059 18.2871 46.6621 18.5879C47.3184 18.8613 47.8789 19.2852 48.3438 19.8594C48.3164 18.4102 48.2617 17.2617 48.1797 16.4141C48.125 15.5391 48.0703 14.8691 48.0156 14.4043C47.9062 13.8574 47.8105 13.4746 47.7285 13.2559C47.5918 13.0645 47.4414 12.8457 47.2773 12.5996C47.1406 12.3535 46.9629 12.1348 46.7441 11.9434C46.5254 11.7246 46.252 11.5469 45.9238 11.4102C45.5957 11.2734 45.2129 11.2188 44.7754 11.2461C44.3105 11.2734 43.9414 11.3965 43.668 11.6152C43.3945 11.834 43.1758 12.0938 43.0117 12.3945C42.875 12.668 42.793 12.9688 42.7656 13.2969C42.7383 13.625 42.752 13.9121 42.8066 14.1582C42.8613 14.3223 42.9434 14.5 43.0527 14.6914C43.1621 14.8555 43.3125 15.0332 43.5039 15.2246C43.6953 15.416 43.9551 15.5801 44.2832 15.7168C43.6543 15.7988 43.0938 15.8672 42.6016 15.9219C42.1094 15.9492 41.6855 15.9902 41.3301 16.0449C40.9199 16.0996 40.5645 16.1406 40.2637 16.168C39.9629 16.1953 39.6074 16.25 39.1973 16.332C38.8418 16.3867 38.4043 16.4551 37.8848 16.5371C37.3652 16.6191 36.7637 16.7285 36.0801 16.8652C36.2441 16.6738 36.3945 16.4961 36.5312 16.332C36.668 16.1406 36.791 15.9766 36.9004 15.8398C37.0098 15.6758 37.1191 15.5254 37.2285 15.3887ZM43.3809 20.2695C42.8887 20.2969 42.3965 20.4199 41.9043 20.6387C41.4121 20.8301 40.9746 21.1172 40.5918 21.5C40.209 21.8555 39.8809 22.2793 39.6074 22.7715C39.3613 23.2363 39.2383 23.7559 39.2383 24.3301C39.2383 24.9043 39.375 25.4102 39.6484 25.8477C39.9492 26.2578 40.332 26.5996 40.7969 26.873C41.2891 27.1465 41.8086 27.3105 42.3555 27.3652C42.9297 27.4199 43.4902 27.3652 44.0371 27.2012C44.5566 27.0098 45.0488 26.709 45.5137 26.2988C45.9785 25.8613 46.375 25.3965 46.7031 24.9043C47.0312 24.3848 47.2637 23.8789 47.4004 23.3867C47.5371 22.8672 47.5508 22.4434 47.4414 22.1152C47.2227 21.4043 46.7305 20.9121 45.9648 20.6387C45.1992 20.3379 44.3379 20.2148 43.3809 20.2695ZM76.0703 14.6094C75.9883 14.0625 75.9199 13.6113 75.8652 13.2559C75.8105 12.873 75.7559 12.5723 75.7012 12.3535C75.6465 12.0801 75.6055 11.875 75.5781 11.7383C75.5234 11.6016 75.4551 11.4512 75.373 11.2871C75.3184 11.1504 75.2227 10.9863 75.0859 10.7949C74.9766 10.6035 74.8398 10.3848 74.6758 10.1387C75.0312 10.248 75.3867 10.3164 75.7422 10.3438C76.125 10.3711 76.4805 10.3984 76.8086 10.4258C77.1641 10.4531 77.5332 10.4531 77.916 10.4258C78.2988 10.4258 78.7363 10.4121 79.2285 10.3848C79.666 10.3574 80.1855 10.3438 80.7871 10.3438C81.416 10.3164 82.127 10.2754 82.9199 10.2207C82.4551 10.3301 82.0586 10.5215 81.7305 10.7949C81.4297 11.041 81.1699 11.3145 80.9512 11.6152C80.7051 11.9434 80.5 12.2988 80.3359 12.6816C80.1992 13.0371 80.1172 13.7207 80.0898 14.7324C80.0625 15.7168 80.0625 16.8926 80.0898 18.2598C80.1172 19.5996 80.1445 21.0488 80.1719 22.6074C80.2266 24.166 80.2539 25.6562 80.2539 27.0781C80.2812 28.5 80.2812 29.7988 80.2539 30.9746C80.2266 32.123 80.1582 32.9707 80.0488 33.5176C79.666 35.2402 78.9551 36.6348 77.916 37.7012C76.877 38.7949 75.5098 39.3828 73.8145 39.4648C71.7637 39.5469 70.1367 39.3555 68.9336 38.8906C67.7578 38.4258 66.8418 37.8516 66.1855 37.168C65.5293 36.5117 65.0371 35.8418 64.709 35.1582C64.3809 34.4746 64.0391 33.9551 63.6836 33.5996C63.3555 33.2988 63.0273 33.0117 62.6992 32.7383C62.3984 32.5195 62.084 32.3008 61.7559 32.082C61.4551 31.8633 61.1543 31.7266 60.8535 31.6719C61.6465 31.6992 62.3574 31.7129 62.9863 31.7129C63.6152 31.7129 64.1484 31.7129 64.5859 31.7129C65.0781 31.7129 65.5156 31.6992 65.8984 31.6719H67.2109H70.9434C70.3965 31.8359 69.9863 32.0137 69.7129 32.2051C69.4395 32.4238 69.248 32.6426 69.1387 32.8613C69.0293 33.1074 68.9746 33.3535 68.9746 33.5996C69.084 34.2559 69.4395 34.7344 70.041 35.0352C70.6426 35.3359 71.4629 35.5137 72.502 35.5684C73.5137 35.623 74.2109 35.5957 74.5938 35.4863C74.9766 35.4043 75.2773 35.2402 75.4961 34.9941C75.9336 34.3379 76.3027 33.4902 76.6035 32.4512C76.8223 31.5762 76.9727 30.4414 77.0547 29.0469C77.1641 27.625 77.041 25.8887 76.6855 23.8379C75.8105 25.041 74.7988 25.9434 73.6504 26.5449C72.502 27.1465 71.4082 27.584 70.3691 27.8574C69.1387 28.1582 67.8945 28.3086 66.6367 28.3086C63.3281 28.1719 60.8535 27.4062 59.2129 26.0117C57.5723 24.6172 56.8203 22.7441 56.957 20.3926C57.0391 19.2168 57.3945 18.041 58.0234 16.8652C58.6797 15.6895 59.5273 14.6367 60.5664 13.707C61.6328 12.7773 62.8496 12.0391 64.2168 11.4922C65.584 10.9453 67.0059 10.7129 68.4824 10.7949C69.6035 10.9043 70.6562 11.1094 71.6406 11.4102C72.4883 11.6836 73.3223 12.0664 74.1426 12.5586C74.9902 13.0508 75.6328 13.7344 76.0703 14.6094ZM63.0273 18.7109C62.8633 19.7773 62.9316 20.7754 63.2324 21.7051C63.5605 22.6348 64.0117 23.4414 64.5859 24.125C65.1602 24.7812 65.8027 25.3008 66.5137 25.6836C67.2246 26.0391 67.8945 26.2031 68.5234 26.1758C69.8359 26.1484 70.9707 25.5605 71.9277 24.4121C72.8848 23.2363 73.459 21.4863 73.6504 19.1621C73.7324 18.0137 73.582 17.0293 73.1992 16.209C72.8438 15.3613 72.3926 14.6777 71.8457 14.1582C71.2988 13.6387 70.7246 13.2695 70.123 13.0508C69.5215 12.832 69.043 12.7363 68.6875 12.7637C68.1953 12.8184 67.6484 12.9688 67.0469 13.2148C66.4727 13.4336 65.9121 13.7754 65.3652 14.2402C64.8184 14.6777 64.3262 15.2656 63.8887 16.0039C63.4785 16.7422 63.1914 17.6445 63.0273 18.7109ZM82.7969 6.16016C83.6172 6.24219 84.3008 6.31055 84.8477 6.36523C85.4219 6.41992 85.8867 6.46094 86.2422 6.48828C86.6523 6.51562 86.9805 6.5293 87.2266 6.5293C87.4727 6.55664 87.8008 6.55664 88.2109 6.5293C88.5664 6.50195 89.0312 6.47461 89.6055 6.44727C90.1797 6.39258 90.9043 6.31055 91.7793 6.20117C91.5879 6.47461 91.4375 6.7207 91.3281 6.93945C91.2188 7.13086 91.123 7.30859 91.041 7.47266L90.7949 7.96484C90.7402 8.12891 90.6855 8.29297 90.6309 8.45703C90.5762 8.59375 90.5215 8.75781 90.4668 8.94922C90.4395 9.14062 90.4121 9.3457 90.3848 9.56445H96.7012L96.127 12.8867L90.3438 12.5586C90.207 13.9531 90.1113 15.0332 90.0566 15.7988C90.002 16.5645 89.9473 17.125 89.8926 17.4805L89.8105 18.2188C89.7285 19.2578 89.6465 20.3926 89.5645 21.623C89.4824 22.8262 89.4551 23.9473 89.4824 24.9863C89.5098 26.0254 89.6055 26.9004 89.7695 27.6113C89.9336 28.2949 90.2207 28.6367 90.6309 28.6367C91.041 28.6367 91.4238 28.5273 91.7793 28.3086C92.1348 28.0898 92.4355 27.8301 92.6816 27.5293C92.9551 27.2285 93.1602 26.9277 93.2969 26.627C93.4336 26.2988 93.502 26.0527 93.502 25.8887C93.502 25.7246 93.4609 25.5332 93.3789 25.3145C93.2422 24.9043 92.9961 24.3848 92.6406 23.7559C93.4336 23.9473 94.1309 24.1387 94.7324 24.3301C95.0332 24.4395 95.3066 24.5488 95.5527 24.6582C95.8262 24.7676 96.1406 24.8906 96.4961 25.0273C96.7969 25.1641 97.1797 25.3281 97.6445 25.5195C98.1094 25.7109 98.6562 25.9434 99.2852 26.2168C98.6836 26.3262 98.2461 26.5039 97.9727 26.75C97.8086 26.8594 97.6855 26.9824 97.6035 27.1191C97.4121 27.4199 97.1934 27.8301 96.9473 28.3496C96.7012 28.8418 96.332 29.334 95.8398 29.8262C95.3477 30.3184 94.6777 30.7559 93.8301 31.1387C93.0098 31.5215 91.9023 31.7402 90.5078 31.7949C89.0586 31.8496 87.9512 31.6035 87.1855 31.0566C86.4473 30.5098 85.9004 29.8809 85.5449 29.1699C85.2168 28.4316 85.0254 27.707 84.9707 26.9961C84.916 26.2852 84.875 25.8066 84.8477 25.5605C84.8203 25.3145 84.8203 24.6992 84.8477 23.7148C84.875 22.7305 84.916 21.6504 84.9707 20.4746C85.0254 19.2715 85.0801 18.123 85.1348 17.0293C85.1895 15.9082 85.2168 15.0879 85.2168 14.5684C85.2168 14.2949 85.2305 14.0078 85.2578 13.707C85.2578 13.4609 85.2578 13.2012 85.2578 12.9277C85.2852 12.627 85.2988 12.3398 85.2988 12.0664L79.3516 12.0254L79.1055 9.6875L85.0938 9.85156C85.0391 9.55078 84.9707 9.27734 84.8887 9.03125C84.834 8.75781 84.7793 8.53906 84.7246 8.375C84.6426 8.18359 84.5605 8.01953 84.4785 7.88281C84.3691 7.74609 84.2461 7.5957 84.1094 7.43164C83.9727 7.29492 83.7949 7.11719 83.5762 6.89844C83.3574 6.67969 83.0977 6.43359 82.7969 6.16016ZM100.68 15.3887C100.816 15.2246 100.898 14.9238 100.926 14.4863C100.98 14.0215 101.09 13.502 101.254 12.9277C101.445 12.3535 101.76 11.752 102.197 11.123C102.635 10.4941 103.346 9.90625 104.33 9.35938C105.287 8.8125 106.217 8.48438 107.119 8.375C108.021 8.26562 108.883 8.30664 109.703 8.49805C110.523 8.68945 111.289 8.99023 112 9.40039C112.738 9.81055 113.408 10.2617 114.01 10.7539C114.42 11.082 114.748 11.5605 114.994 12.1895C115.24 12.791 115.432 13.4746 115.568 14.2402C115.705 15.0059 115.801 15.8125 115.855 16.6602C115.938 17.4805 115.992 18.2871 116.02 19.0801C116.047 19.8457 116.061 20.5566 116.061 21.2129C116.088 21.8418 116.143 22.3613 116.225 22.7715C116.334 23.373 116.525 23.8926 116.799 24.3301C117.072 24.7402 117.373 25.0957 117.701 25.3965C118.029 25.6699 118.357 25.8887 118.686 26.0527C119.014 26.2168 119.301 26.3398 119.547 26.4219C119.711 26.5039 119.861 26.5586 119.998 26.5859C120.271 26.6953 120.463 26.6953 120.572 26.5859C120.408 26.9688 120.258 27.2969 120.121 27.5703C119.984 27.8438 119.875 28.0762 119.793 28.2676C119.684 28.4863 119.588 28.6641 119.506 28.8008C119.424 28.9648 119.328 29.1152 119.219 29.252C119.137 29.3887 119.027 29.5391 118.891 29.7031C118.754 29.8672 118.617 30.0449 118.48 30.2363C118.125 30.0996 117.783 29.9355 117.455 29.7441C117.154 29.5527 116.881 29.375 116.635 29.2109C116.334 29.0195 116.061 28.8281 115.814 28.6367C115.568 28.4453 115.336 28.2266 115.117 27.9805C114.926 27.7617 114.721 27.5293 114.502 27.2832C114.311 27.0371 114.146 26.7637 114.01 26.4629C113.846 26.8184 113.449 27.3242 112.82 27.9805C112.219 28.6367 111.426 29.2383 110.441 29.7852C109.457 30.3047 108.309 30.6738 106.996 30.8926C105.711 31.1113 104.289 30.9609 102.73 30.4414C102.047 30.2227 101.404 29.9082 100.803 29.498C100.201 29.0605 99.6816 28.541 99.2441 27.9395C98.834 27.3379 98.5332 26.6543 98.3418 25.8887C98.1777 25.0957 98.1914 24.2207 98.3828 23.2637C98.5742 22.3066 98.916 21.5 99.4082 20.8438C99.9004 20.1875 100.488 19.6543 101.172 19.2441C101.855 18.834 102.621 18.5195 103.469 18.3008C104.316 18.082 105.191 17.9316 106.094 17.8496C106.805 17.8223 107.516 17.8633 108.227 17.9727C108.828 18.082 109.457 18.2871 110.113 18.5879C110.77 18.8613 111.33 19.2852 111.795 19.8594C111.768 18.4102 111.713 17.2617 111.631 16.4141C111.576 15.5391 111.521 14.8691 111.467 14.4043C111.357 13.8574 111.262 13.4746 111.18 13.2559C111.043 13.0645 110.893 12.8457 110.729 12.5996C110.592 12.3535 110.414 12.1348 110.195 11.9434C109.977 11.7246 109.703 11.5469 109.375 11.4102C109.047 11.2734 108.664 11.2188 108.227 11.2461C107.762 11.2734 107.393 11.3965 107.119 11.6152C106.846 11.834 106.627 12.0938 106.463 12.3945C106.326 12.668 106.244 12.9688 106.217 13.2969C106.189 13.625 106.203 13.9121 106.258 14.1582C106.312 14.3223 106.395 14.5 106.504 14.6914C106.613 14.8555 106.764 15.0332 106.955 15.2246C107.146 15.416 107.406 15.5801 107.734 15.7168C107.105 15.7988 106.545 15.8672 106.053 15.9219C105.561 15.9492 105.137 15.9902 104.781 16.0449C104.371 16.0996 104.016 16.1406 103.715 16.168C103.414 16.1953 103.059 16.25 102.648 16.332C102.293 16.3867 101.855 16.4551 101.336 16.5371C100.816 16.6191 100.215 16.7285 99.5312 16.8652C99.6953 16.6738 99.8457 16.4961 99.9824 16.332C100.119 16.1406 100.242 15.9766 100.352 15.8398C100.461 15.6758 100.57 15.5254 100.68 15.3887ZM106.832 20.2695C106.34 20.2969 105.848 20.4199 105.355 20.6387C104.863 20.8301 104.426 21.1172 104.043 21.5C103.66 21.8555 103.332 22.2793 103.059 22.7715C102.812 23.2363 102.689 23.7559 102.689 24.3301C102.689 24.9043 102.826 25.4102 103.1 25.8477C103.4 26.2578 103.783 26.5996 104.248 26.873C104.74 27.1465 105.26 27.3105 105.807 27.3652C106.381 27.4199 106.941 27.3652 107.488 27.2012C108.008 27.0098 108.5 26.709 108.965 26.2988C109.43 25.8613 109.826 25.3965 110.154 24.9043C110.482 24.3848 110.715 23.8789 110.852 23.3867C110.988 22.8672 111.002 22.4434 110.893 22.1152C110.674 21.4043 110.182 20.9121 109.416 20.6387C108.65 20.3379 107.789 20.2148 106.832 20.2695ZM121.434 27.4883C121.625 26.5859 121.762 25.793 121.844 25.1094C121.953 24.3984 122.035 23.8105 122.09 23.3457C122.145 22.7988 122.172 22.334 122.172 21.9512C122.145 21.4863 122.117 20.9395 122.09 20.3105C122.09 19.6543 122.062 19.0117 122.008 18.3828C121.98 17.7266 121.939 17.1523 121.885 16.6602C121.83 16.1406 121.762 15.7715 121.68 15.5527C121.57 15.334 121.42 15.1016 121.229 14.8555C120.846 14.3906 120.285 13.9395 119.547 13.502C120.176 13.3652 120.709 13.2559 121.146 13.1738C121.611 13.0645 121.994 12.9688 122.295 12.8867C122.623 12.7773 122.91 12.6816 123.156 12.5996C123.375 12.5176 123.635 12.4355 123.936 12.3535C124.182 12.2988 124.482 12.2305 124.838 12.1484C125.193 12.0664 125.604 11.9707 126.068 11.8613L125.945 15.5938C126.82 14.5547 127.709 13.7754 128.611 13.2559C129.514 12.7363 130.361 12.3672 131.154 12.1484C132.057 11.875 132.945 11.7383 133.82 11.7383C134.914 11.793 135.926 11.9707 136.855 12.2715C137.812 12.5723 138.633 12.9277 139.316 13.3379C140.027 13.7207 140.602 14.1309 141.039 14.5684C141.477 15.0059 141.736 15.3887 141.818 15.7168C142.146 16.7832 142.229 17.7676 142.064 18.6699C141.9 19.5449 141.682 20.4062 141.408 21.2539C141.162 22.0742 140.943 22.8945 140.752 23.7148C140.588 24.5352 140.656 25.4238 140.957 26.3809C141.066 26.627 141.176 26.873 141.285 27.1191C141.395 27.3379 141.531 27.5566 141.695 27.7754C141.859 27.9941 142.051 28.1719 142.27 28.3086C141.969 28.2812 141.668 28.2676 141.367 28.2676C141.066 28.2402 140.793 28.2129 140.547 28.1855C140.246 28.1582 139.973 28.1309 139.727 28.1035C139.453 28.0762 139.084 28.0625 138.619 28.0625C137.826 28.0625 136.596 28.1035 134.928 28.1855C135.174 27.6113 135.365 27.1328 135.502 26.75C135.666 26.3398 135.803 26.0117 135.912 25.7656C136.021 25.4648 136.104 25.2324 136.158 25.0684C136.486 24.2754 136.678 23.373 136.732 22.3613C136.814 21.3496 136.746 20.3242 136.527 19.2852C136.445 18.9297 136.309 18.5059 136.117 18.0137C135.926 17.5215 135.666 17.043 135.338 16.5781C135.037 16.1133 134.668 15.7168 134.23 15.3887C133.82 15.0605 133.342 14.8691 132.795 14.8145C132.248 14.7598 131.633 14.8965 130.949 15.2246C130.293 15.5527 129.582 16.1543 128.816 17.0293C128.242 17.7676 127.791 18.6699 127.463 19.7363C127.162 20.6387 126.957 21.7734 126.848 23.1406C126.738 24.4805 126.902 26.0527 127.34 27.8574C126.957 27.8027 126.602 27.7754 126.273 27.7754C125.945 27.748 125.672 27.7207 125.453 27.6934C125.18 27.666 124.934 27.6387 124.715 27.6113C124.469 27.6113 124.195 27.5977 123.895 27.5703C123.621 27.5703 123.279 27.5703 122.869 27.5703C122.459 27.543 121.98 27.5156 121.434 27.4883ZM144.361 2.42773C144.662 2.56445 145.018 2.66016 145.428 2.71484C145.865 2.76953 146.275 2.79688 146.658 2.79688C147.123 2.79688 147.602 2.7832 148.094 2.75586C148.586 2.72852 149.188 2.67383 149.898 2.5918C150.473 2.53711 151.184 2.46875 152.031 2.38672C152.879 2.30469 153.822 2.19531 154.861 2.05859C154.479 2.25 154.15 2.45508 153.877 2.67383C153.604 2.89258 153.371 3.11133 153.18 3.33008C152.961 3.57617 152.783 3.82227 152.646 4.06836C152.455 4.39648 152.195 4.9707 151.867 5.79102C151.566 6.58398 151.252 7.47266 150.924 8.45703C150.623 9.44141 150.35 10.4395 150.104 11.4512C149.885 12.4629 149.762 13.3242 149.734 14.0352C149.707 14.6367 149.68 15.3203 149.652 16.0859C149.625 16.7422 149.598 17.5488 149.57 18.5059C149.543 19.4629 149.516 20.5566 149.488 21.7871C151.457 20.3652 152.975 19.2305 154.041 18.3828C155.107 17.5078 155.887 16.8379 156.379 16.373C156.953 15.8535 157.295 15.4844 157.404 15.2656C157.377 15.1016 157.309 14.9238 157.199 14.7324C157.062 14.5684 156.871 14.377 156.625 14.1582C156.379 13.9395 156.01 13.6934 155.518 13.4199C156.229 13.502 156.844 13.5566 157.363 13.584C157.91 13.6113 158.375 13.6387 158.758 13.666C159.195 13.6934 159.578 13.6934 159.906 13.666C160.262 13.666 160.699 13.6523 161.219 13.625C162.121 13.5977 163.516 13.5566 165.402 13.502C163.57 14.459 162.121 15.2793 161.055 15.9629C160.453 16.3457 159.92 16.7012 159.455 17.0293C158.99 17.3848 158.512 17.7539 158.02 18.1367C157.582 18.4648 157.076 18.8477 156.502 19.2852C155.955 19.7227 155.408 20.1875 154.861 20.6797C155.818 22.2383 156.652 23.5234 157.363 24.5352C158.102 25.5469 158.717 26.3672 159.209 26.9961C159.783 27.7344 160.289 28.3223 160.727 28.7598C161.164 29.1699 161.738 29.6348 162.449 30.1543C163.051 30.6191 163.83 31.166 164.787 31.7949C165.771 32.3965 166.961 33.0938 168.355 33.8867C167.645 33.75 166.961 33.6543 166.305 33.5996C165.648 33.5723 165.088 33.5723 164.623 33.5996C164.049 33.627 163.529 33.6816 163.064 33.7637C162.572 33.873 162.025 34.0098 161.424 34.1738C160.904 34.3105 160.289 34.4883 159.578 34.707C158.895 34.9531 158.143 35.2676 157.322 35.6504C157.842 35.2676 158.225 34.8984 158.471 34.543C158.744 34.2148 158.936 33.9414 159.045 33.7227C159.154 33.4492 159.195 33.2168 159.168 33.0254C159.031 32.752 158.717 32.1914 158.225 31.3438C157.76 30.6328 157.076 29.5938 156.174 28.2266C155.271 26.8594 153.986 25 152.318 22.6484C152.236 22.6758 152.1 22.7578 151.908 22.8945C151.744 23.0312 151.498 23.2227 151.17 23.4688C150.842 23.6875 150.404 24.0156 149.857 24.4531L150.965 31.6309C150.719 31.7402 150.445 31.8359 150.145 31.918C149.871 32 149.611 32.0684 149.365 32.123C149.064 32.2051 148.764 32.2598 148.463 32.2871C148.162 32.3145 147.807 32.3691 147.396 32.4512C147.041 32.5059 146.617 32.5742 146.125 32.6562C145.633 32.7656 145.072 32.8887 144.443 33.0254C144.799 32.7793 145.086 32.4922 145.305 32.1641C145.523 31.8633 145.701 31.5762 145.838 31.3027C145.975 31.002 146.098 30.6875 146.207 30.3594C146.262 30.0859 146.316 29.375 146.371 28.2266C146.453 27.0781 146.521 25.7109 146.576 24.125C146.631 22.5117 146.672 20.7891 146.699 18.957C146.754 17.125 146.781 15.4023 146.781 13.7891C146.781 12.1484 146.768 10.7266 146.74 9.52344C146.713 8.29297 146.658 7.5 146.576 7.14453C146.439 6.70703 146.275 6.24219 146.084 5.75C145.92 5.3125 145.688 4.82031 145.387 4.27344C145.113 3.69922 144.771 3.08398 144.361 2.42773ZM174.59 25.3965C175.355 25.3965 176.066 25.3145 176.723 25.1504C177.27 25.0137 177.789 24.7949 178.281 24.4941C178.801 24.166 179.143 23.6875 179.307 23.0586C179.854 23.168 180.318 23.2637 180.701 23.3457C181.084 23.4004 181.412 23.4551 181.686 23.5098C181.986 23.5918 182.246 23.6465 182.465 23.6738C182.684 23.7285 182.943 23.7832 183.244 23.8379C183.518 23.8926 183.846 23.9609 184.229 24.043C184.639 24.0977 185.117 24.1797 185.664 24.2891C185.254 24.2344 184.83 24.2754 184.393 24.4121C183.982 24.5488 183.586 24.6992 183.203 24.8633C182.766 25.0547 182.355 25.2871 181.973 25.5605C181.727 25.7246 181.439 25.9707 181.111 26.2988C180.811 26.627 180.373 26.9414 179.799 27.2422C179.225 27.543 178.459 27.8027 177.502 28.0215C176.572 28.2129 175.369 28.2812 173.893 28.2266C172.115 28.1719 170.625 27.8574 169.422 27.2832C168.219 26.6816 167.248 25.957 166.51 25.1094C165.771 24.2344 165.238 23.291 164.91 22.2793C164.582 21.2676 164.404 20.3242 164.377 19.4492C164.35 18.5742 164.609 17.6582 165.156 16.7012C165.703 15.7441 166.469 14.8691 167.453 14.0762C168.465 13.2832 169.682 12.6406 171.104 12.1484C172.525 11.6289 174.084 11.3691 175.779 11.3691C176.764 11.3691 177.666 11.4922 178.486 11.7383C179.334 11.957 180.1 12.2578 180.783 12.6406C181.494 13.0234 182.109 13.4609 182.629 13.9531C183.148 14.418 183.586 14.8965 183.941 15.3887C184.297 15.9082 184.598 16.4551 184.844 17.0293C185.062 17.5215 185.24 18.082 185.377 18.7109C185.514 19.3398 185.555 19.9824 185.5 20.6387C183.422 20.6934 181.74 20.7344 180.455 20.7617C179.197 20.7891 178.213 20.8027 177.502 20.8027H175.656H174.262C173.77 20.8027 173.127 20.8164 172.334 20.8438C171.541 20.8711 170.57 20.9121 169.422 20.9668C169.559 22.0605 169.9 22.9082 170.447 23.5098C171.021 24.084 171.623 24.5215 172.252 24.8223C172.963 25.1504 173.742 25.3418 174.59 25.3965ZM170.898 18.0137C171.773 18.0684 172.498 18.1094 173.072 18.1367C173.674 18.1641 174.166 18.1914 174.549 18.2188C174.959 18.2461 175.287 18.2598 175.533 18.2598H176.559C177.242 18.2598 178.514 18.2188 180.373 18.1367C180.291 16.9336 180.031 16.0176 179.594 15.3887C179.184 14.7598 178.746 14.2949 178.281 13.9941C177.734 13.666 177.133 13.4746 176.477 13.4199C174.699 13.4473 173.373 13.8164 172.498 14.5273C171.65 15.2383 171.117 16.4004 170.898 18.0137ZM186.73 12.3535C187.25 12.3809 187.715 12.3945 188.125 12.3945C188.562 12.3672 188.932 12.3398 189.232 12.3125C189.588 12.2852 189.902 12.2578 190.176 12.2305C190.586 12.1758 191.01 12.1074 191.447 12.0254C191.83 11.9707 192.227 11.9023 192.637 11.8203C193.074 11.7109 193.498 11.5879 193.908 11.4512C193.744 11.8613 193.607 12.2168 193.498 12.5176C193.389 12.8184 193.307 13.0781 193.252 13.2969C193.17 13.543 193.129 13.748 193.129 13.9121C193.102 14.1035 193.088 14.3359 193.088 14.6094C193.061 15.0742 193.061 15.8262 193.088 16.8652C194.51 15.6348 195.699 14.6777 196.656 13.9941C197.641 13.3105 198.42 12.7773 198.994 12.3945C199.678 11.957 200.211 11.6699 200.594 11.5332C201.605 11.3691 202.494 11.6016 203.26 12.2305C203.588 12.5039 203.902 12.873 204.203 13.3379C204.504 13.7754 204.764 14.3633 204.982 15.1016C205.201 15.8398 205.365 16.7285 205.475 17.7676C205.584 18.7793 205.598 19.9961 205.516 21.418C204.941 21.4727 204.422 21.5273 203.957 21.582C203.52 21.6367 203.15 21.6777 202.85 21.7051C202.494 21.7598 202.166 21.7871 201.865 21.7871L200.758 21.9102C200.375 21.9648 199.896 22.0195 199.322 22.0742C198.775 22.1016 198.105 22.1562 197.312 22.2383C198.461 21.3086 199.199 20.502 199.527 19.8184C199.883 19.1074 200.033 18.5195 199.979 18.0547C199.924 17.5352 199.678 17.084 199.24 16.7012C198.721 16.4004 198.16 16.291 197.559 16.373C197.039 16.4277 196.438 16.6602 195.754 17.0703C195.07 17.4805 194.346 18.2461 193.58 19.3672C193.635 21.1172 193.689 22.5664 193.744 23.7148C193.826 24.8633 193.895 25.793 193.949 26.5039C194.031 27.3242 194.1 27.9668 194.154 28.4316C194.236 28.8418 194.4 29.2793 194.646 29.7441C194.838 30.127 195.111 30.5508 195.467 31.0156C195.822 31.4805 196.287 31.9453 196.861 32.4102C195.658 32.3555 194.674 32.3555 193.908 32.4102C193.443 32.4375 193.033 32.4648 192.678 32.4922C192.295 32.5469 191.885 32.6016 191.447 32.6562C191.064 32.7109 190.613 32.7656 190.094 32.8203C189.602 32.9023 189.055 32.9844 188.453 33.0664C188.672 32.7656 188.85 32.4102 188.986 32C189.123 31.6172 189.232 31.248 189.314 30.8926C189.424 30.4824 189.506 30.0586 189.561 29.6211C189.588 29.2383 189.602 28.6641 189.602 27.8984C189.629 27.1328 189.615 26.2715 189.561 25.3145C189.533 24.3301 189.492 23.3184 189.438 22.2793C189.383 21.2129 189.314 20.2148 189.232 19.2852C189.15 18.3555 189.055 17.5488 188.945 16.8652C188.863 16.1543 188.768 15.6621 188.658 15.3887C188.521 15.0605 188.357 14.7324 188.166 14.4043C188.002 14.1035 187.797 13.7891 187.551 13.4609C187.305 13.1055 187.031 12.7363 186.73 12.3535Z" fill="white"/>
</g>
<defs>
<filter id="filter0_d_1622_5" x="0.384766" y="0.0585938" width="211.254" height="49.5293" filterUnits="userSpaceOnUse" color-interpolation-filters="sRGB">
<feFlood flood-opacity="0" result="BackgroundImageFix"/>
<feColorMatrix in="SourceAlpha" type="matrix" values="0 0 0 0 0 0 0 0 0 0 0 0 0 0 0 0 0 0 127 0" result="hardAlpha"/>
<feOffset dy="4"/>
<feGaussianBlur stdDeviation="3"/>
<feComposite in2="hardAlpha" operator="out"/>
<feColorMatrix type="matrix" values="0 0 0 0 0 0 0 0 0 0 0 0 0 0 0 0 0 0 0.3 0"/>
<feBlend mode="normal" in2="BackgroundImageFix" result="effect1_dropShadow_1622_5"/>
<feBlend mode="normal" in="SourceGraphic" in2="effect1_dropShadow_1622_5" result="shape"/>
</filter>
</defs>
</svg>
