<svg width="454" height="119" viewBox="0 0 454 119" fill="none" xmlns="http://www.w3.org/2000/svg">
<g filter="url(#filter0_i_32_100)">
<circle cx="130" cy="60" r="47" fill="#D89F5F"/>
</g>
<g filter="url(#filter1_d_32_100)">
<path d="M6.82812 21.1406C8.49479 21.5573 10.0833 21.8698 11.5938 22.0781C13.1042 22.2865 14.4323 22.4427 15.5781 22.5469C16.9323 22.7031 18.1823 22.7552 19.3281 22.7031C20.7865 22.7031 22.6094 22.5729 24.7969 22.3125C27.0365 22.0521 29.3281 21.8177 31.6719 21.6094C34.0156 21.349 36.2552 21.1927 38.3906 21.1406C40.5781 21.0365 42.349 21.1667 43.7031 21.5312C45.0573 21.8438 46.4375 22.3385 47.8438 23.0156C49.3021 23.6406 50.6302 24.4479 51.8281 25.4375C53.026 26.375 54.0156 27.4948 54.7969 28.7969C55.5781 30.0469 56.0208 31.4792 56.125 33.0938C56.0729 35.125 55.6042 37.026 54.7188 38.7969C53.9896 40.3073 52.7656 41.8698 51.0469 43.4844C49.3281 45.0469 46.8542 46.2448 43.625 47.0781C45.2396 47.2865 46.6198 47.651 47.7656 48.1719C48.9635 48.6406 49.9792 49.2135 50.8125 49.8906C51.6979 50.5156 52.401 51.2188 52.9219 52C53.4948 52.7812 53.9375 53.5625 54.25 54.3438C55.0312 56.1667 55.3958 58.1979 55.3438 60.4375C55.0312 63.3542 54.4323 65.6719 53.5469 67.3906C52.7135 69.1094 51.75 70.4375 50.6562 71.375C49.5625 72.3125 48.4427 72.9635 47.2969 73.3281C46.151 73.6927 45.1094 73.9792 44.1719 74.1875C43.2344 74.3958 42.0885 74.5 40.7344 74.5C39.3802 74.5 37.9219 74.474 36.3594 74.4219C34.849 74.3177 33.2865 74.2396 31.6719 74.1875C30.0573 74.0833 28.5208 74.0833 27.0625 74.1875C25.8646 74.2917 24.4062 74.3958 22.6875 74.5C21.2292 74.6042 19.4062 74.7344 17.2188 74.8906C15.0312 74.9948 12.4792 75.125 9.5625 75.2812C10.1354 74.8646 10.6042 74.3958 10.9688 73.875C11.3854 73.3021 11.724 72.8073 11.9844 72.3906C12.2448 71.8698 12.4792 71.375 12.6875 70.9062C12.8438 70.4896 12.974 69.3438 13.0781 67.4688C13.1823 65.5938 13.2604 63.3542 13.3125 60.75C13.3646 58.0938 13.3906 55.2552 13.3906 52.2344C13.4427 49.1615 13.4167 46.2188 13.3125 43.4062C13.2604 40.5417 13.1562 38.0156 13 35.8281C12.8958 33.5885 12.7396 31.974 12.5312 30.9844C12.2188 29.8906 11.8021 28.7708 11.2812 27.625C10.8646 26.6354 10.2656 25.5677 9.48438 24.4219C8.75521 23.276 7.86979 22.1823 6.82812 21.1406ZM23.3125 29.1094C23.3125 29.3177 23.3385 30.0208 23.3906 31.2188C23.4427 32.2604 23.4948 33.875 23.5469 36.0625C23.651 38.1979 23.7812 41.2448 23.9375 45.2031C25.2396 45.776 26.5156 46.0885 27.7656 46.1406C29.0156 46.1406 30.1354 46.0885 31.125 45.9844C32.2708 45.8281 33.3646 45.5677 34.4062 45.2031C35.8125 44.6302 36.9062 43.6927 37.6875 42.3906C38.5208 41.0885 39.0677 39.7344 39.3281 38.3281C39.6406 36.8698 39.7188 35.5156 39.5625 34.2656C39.4062 32.9635 39.0677 32.026 38.5469 31.4531C37.5573 30.5677 36.3333 29.8385 34.875 29.2656C33.625 28.7969 32.0365 28.4844 30.1094 28.3281C28.2344 28.1198 25.9688 28.3802 23.3125 29.1094ZM22.9219 66.1406C24.849 67.1302 26.5417 67.7812 28 68.0938C29.4583 68.4062 30.6823 68.5625 31.6719 68.5625C32.8177 68.5625 33.8073 68.4062 34.6406 68.0938C35.6302 67.625 36.5938 67 37.5312 66.2188C38.5208 65.3854 39.25 64.4219 39.7188 63.3281C40.2396 62.1823 40.4479 60.9323 40.3438 59.5781C40.2396 58.1719 39.6406 56.6354 38.5469 54.9688C37.5573 53.7708 36.3594 52.8333 34.9531 52.1562C33.7031 51.5833 32.1146 51.2188 30.1875 51.0625C28.3125 50.9062 25.9948 51.349 23.2344 52.3906L22.9219 66.1406ZM65.5781 45.3594C65.8385 45.0469 65.9948 44.474 66.0469 43.6406C66.151 42.7552 66.3594 41.7656 66.6719 40.6719C67.0365 39.5781 67.6354 38.4323 68.4688 37.2344C69.3021 36.0365 70.6562 34.9167 72.5312 33.875C74.3542 32.8333 76.125 32.2083 77.8438 32C79.5625 31.7917 81.2031 31.8698 82.7656 32.2344C84.3281 32.599 85.7865 33.1719 87.1406 33.9531C88.5469 34.7344 89.8229 35.5938 90.9688 36.5312C91.75 37.1562 92.375 38.0677 92.8438 39.2656C93.3125 40.4115 93.6771 41.7135 93.9375 43.1719C94.1979 44.6302 94.3802 46.1667 94.4844 47.7812C94.6406 49.3438 94.7448 50.8802 94.7969 52.3906C94.849 53.849 94.875 55.2031 94.875 56.4531C94.9271 57.651 95.0312 58.6406 95.1875 59.4219C95.3958 60.5677 95.7604 61.5573 96.2812 62.3906C96.8021 63.1719 97.375 63.849 98 64.4219C98.625 64.9427 99.25 65.3594 99.875 65.6719C100.5 65.9844 101.047 66.2188 101.516 66.375C101.828 66.5312 102.115 66.6354 102.375 66.6875C102.896 66.8958 103.26 66.8958 103.469 66.6875C103.156 67.4167 102.87 68.0417 102.609 68.5625C102.349 69.0833 102.141 69.526 101.984 69.8906C101.776 70.3073 101.594 70.6458 101.438 70.9062C101.281 71.2188 101.099 71.5052 100.891 71.7656C100.734 72.026 100.526 72.3125 100.266 72.625C100.005 72.9375 99.7448 73.276 99.4844 73.6406C98.8073 73.3802 98.1562 73.0677 97.5312 72.7031C96.9583 72.3385 96.4375 72 95.9688 71.6875C95.3958 71.3229 94.875 70.9583 94.4062 70.5938C93.9375 70.2292 93.4948 69.8125 93.0781 69.3438C92.7135 68.9271 92.3229 68.4844 91.9062 68.0156C91.5417 67.5469 91.2292 67.026 90.9688 66.4531C90.6562 67.1302 89.901 68.0938 88.7031 69.3438C87.5573 70.5938 86.0469 71.7396 84.1719 72.7812C82.2969 73.7708 80.1094 74.474 77.6094 74.8906C75.1615 75.3073 72.4531 75.0208 69.4844 74.0312C68.1823 73.6146 66.9583 73.0156 65.8125 72.2344C64.6667 71.401 63.6771 70.4115 62.8438 69.2656C62.0625 68.1198 61.4896 66.8177 61.125 65.3594C60.8125 63.849 60.8385 62.1823 61.2031 60.3594C61.5677 58.5365 62.2188 57 63.1562 55.75C64.0938 54.5 65.2135 53.4844 66.5156 52.7031C67.8177 51.9219 69.276 51.3229 70.8906 50.9062C72.5052 50.4896 74.1719 50.2031 75.8906 50.0469C77.2448 49.9948 78.599 50.0729 79.9531 50.2812C81.099 50.4896 82.2969 50.8802 83.5469 51.4531C84.7969 51.974 85.8646 52.7812 86.75 53.875C86.6979 51.1146 86.5938 48.9271 86.4375 47.3125C86.3333 45.6458 86.2292 44.3698 86.125 43.4844C85.9167 42.4427 85.7344 41.7135 85.5781 41.2969C85.3177 40.9323 85.0312 40.5156 84.7188 40.0469C84.4583 39.5781 84.1198 39.1615 83.7031 38.7969C83.2865 38.3802 82.7656 38.0417 82.1406 37.7812C81.5156 37.5208 80.7865 37.4167 79.9531 37.4688C79.0677 37.5208 78.3646 37.7552 77.8438 38.1719C77.3229 38.5885 76.9062 39.0833 76.5938 39.6562C76.3333 40.1771 76.1771 40.75 76.125 41.375C76.0729 42 76.099 42.5469 76.2031 43.0156C76.3073 43.3281 76.4635 43.6667 76.6719 44.0312C76.8802 44.3438 77.1667 44.6823 77.5312 45.0469C77.8958 45.4115 78.3906 45.724 79.0156 45.9844C77.8177 46.1406 76.75 46.2708 75.8125 46.375C74.875 46.4271 74.0677 46.5052 73.3906 46.6094C72.6094 46.7135 71.9323 46.7917 71.3594 46.8438C70.7865 46.8958 70.1094 47 69.3281 47.1562C68.651 47.2604 67.8177 47.3906 66.8281 47.5469C65.8385 47.7031 64.6927 47.9115 63.3906 48.1719C63.7031 47.8073 63.9896 47.4688 64.25 47.1562C64.5104 46.7917 64.7448 46.4792 64.9531 46.2188C65.1615 45.9062 65.3698 45.6198 65.5781 45.3594ZM77.2969 54.6562C76.3594 54.7083 75.4219 54.9427 74.4844 55.3594C73.5469 55.724 72.7135 56.2708 71.9844 57C71.2552 57.6771 70.6302 58.4844 70.1094 59.4219C69.6406 60.3073 69.4062 61.2969 69.4062 62.3906C69.4062 63.4844 69.6667 64.4479 70.1875 65.2812C70.7604 66.0625 71.4896 66.7135 72.375 67.2344C73.3125 67.7552 74.3021 68.0677 75.3438 68.1719C76.4375 68.276 77.5052 68.1719 78.5469 67.8594C79.5365 67.4948 80.474 66.9219 81.3594 66.1406C82.2448 65.3073 83 64.4219 83.625 63.4844C84.25 62.4948 84.6927 61.5312 84.9531 60.5938C85.2135 59.6042 85.2396 58.7969 85.0312 58.1719C84.6146 56.8177 83.6771 55.8802 82.2188 55.3594C80.7604 54.7865 79.1198 54.5521 77.2969 54.6562ZM139.562 43.875C139.406 42.8333 139.276 41.974 139.172 41.2969C139.068 40.5677 138.964 39.9948 138.859 39.5781C138.755 39.0573 138.677 38.6667 138.625 38.4062C138.521 38.1458 138.391 37.8594 138.234 37.5469C138.13 37.2865 137.948 36.974 137.688 36.6094C137.479 36.2448 137.219 35.8281 136.906 35.3594C137.583 35.5677 138.26 35.6979 138.938 35.75C139.667 35.8021 140.344 35.8542 140.969 35.9062C141.646 35.9583 142.349 35.9583 143.078 35.9062C143.807 35.9062 144.641 35.8802 145.578 35.8281C146.411 35.776 147.401 35.75 148.547 35.75C149.745 35.6979 151.099 35.6198 152.609 35.5156C151.724 35.724 150.969 36.0885 150.344 36.6094C149.771 37.0781 149.276 37.599 148.859 38.1719C148.391 38.7969 148 39.474 147.688 40.2031C147.427 40.8802 147.271 42.1823 147.219 44.1094C147.167 45.9844 147.167 48.224 147.219 50.8281C147.271 53.3802 147.323 56.1406 147.375 59.1094C147.479 62.0781 147.531 64.9167 147.531 67.625C147.583 70.3333 147.583 72.8073 147.531 75.0469C147.479 77.2344 147.349 78.849 147.141 79.8906C146.411 83.1719 145.057 85.8281 143.078 87.8594C141.099 89.9427 138.495 91.0625 135.266 91.2188C131.359 91.375 128.26 91.0104 125.969 90.125C123.729 89.2396 121.984 88.1458 120.734 86.8438C119.484 85.5938 118.547 84.3177 117.922 83.0156C117.297 81.7135 116.646 80.724 115.969 80.0469C115.344 79.474 114.719 78.9271 114.094 78.4062C113.521 77.9896 112.922 77.5729 112.297 77.1562C111.724 76.7396 111.151 76.4792 110.578 76.375C112.089 76.4271 113.443 76.4531 114.641 76.4531C115.839 76.4531 116.854 76.4531 117.688 76.4531C118.625 76.4531 119.458 76.4271 120.188 76.375H122.688H129.797C128.755 76.6875 127.974 77.026 127.453 77.3906C126.932 77.8073 126.568 78.224 126.359 78.6406C126.151 79.1094 126.047 79.5781 126.047 80.0469C126.255 81.2969 126.932 82.2083 128.078 82.7812C129.224 83.3542 130.786 83.6927 132.766 83.7969C134.693 83.901 136.021 83.849 136.75 83.6406C137.479 83.4844 138.052 83.1719 138.469 82.7031C139.302 81.4531 140.005 79.8385 140.578 77.8594C140.995 76.1927 141.281 74.0312 141.438 71.375C141.646 68.6667 141.411 65.3594 140.734 61.4531C139.068 63.7448 137.141 65.4635 134.953 66.6094C132.766 67.7552 130.682 68.5885 128.703 69.1094C126.359 69.6823 123.99 69.9688 121.594 69.9688C115.292 69.7083 110.578 68.25 107.453 65.5938C104.328 62.9375 102.896 59.3698 103.156 54.8906C103.312 52.651 103.99 50.4115 105.188 48.1719C106.438 45.9323 108.052 43.9271 110.031 42.1562C112.062 40.3854 114.38 38.9792 116.984 37.9375C119.589 36.8958 122.297 36.4531 125.109 36.6094C127.245 36.8177 129.25 37.2083 131.125 37.7812C132.74 38.3021 134.328 39.0312 135.891 39.9688C137.505 40.9062 138.729 42.2083 139.562 43.875ZM114.719 51.6875C114.406 53.7188 114.536 55.6198 115.109 57.3906C115.734 59.1615 116.594 60.6979 117.688 62C118.781 63.25 120.005 64.2396 121.359 64.9688C122.714 65.6458 123.99 65.9583 125.188 65.9062C127.688 65.8542 129.849 64.7344 131.672 62.5469C133.495 60.3073 134.589 56.974 134.953 52.5469C135.109 50.3594 134.823 48.4844 134.094 46.9219C133.417 45.3073 132.557 44.0052 131.516 43.0156C130.474 42.026 129.38 41.3229 128.234 40.9062C127.089 40.4896 126.177 40.3073 125.5 40.3594C124.562 40.4635 123.521 40.75 122.375 41.2188C121.281 41.6354 120.214 42.2865 119.172 43.1719C118.13 44.0052 117.193 45.125 116.359 46.5312C115.578 47.9375 115.031 49.6562 114.719 51.6875ZM152.375 27.7812C153.938 27.9375 155.24 28.0677 156.281 28.1719C157.375 28.276 158.26 28.3542 158.938 28.4062C159.719 28.4583 160.344 28.4844 160.812 28.4844C161.281 28.5365 161.906 28.5365 162.688 28.4844C163.365 28.4323 164.25 28.3802 165.344 28.3281C166.438 28.224 167.818 28.0677 169.484 27.8594C169.12 28.3802 168.833 28.849 168.625 29.2656C168.417 29.6302 168.234 29.9688 168.078 30.2812L167.609 31.2188C167.505 31.5312 167.401 31.8438 167.297 32.1562C167.193 32.4167 167.089 32.7292 166.984 33.0938C166.932 33.4583 166.88 33.849 166.828 34.2656H178.859L177.766 40.5938L166.75 39.9688C166.49 42.625 166.307 44.6823 166.203 46.1406C166.099 47.599 165.995 48.6667 165.891 49.3438L165.734 50.75C165.578 52.7292 165.422 54.8906 165.266 57.2344C165.109 59.526 165.057 61.6615 165.109 63.6406C165.161 65.6198 165.344 67.2865 165.656 68.6406C165.969 69.9427 166.516 70.5938 167.297 70.5938C168.078 70.5938 168.807 70.3854 169.484 69.9688C170.161 69.5521 170.734 69.0573 171.203 68.4844C171.724 67.9115 172.115 67.3385 172.375 66.7656C172.635 66.1406 172.766 65.6719 172.766 65.3594C172.766 65.0469 172.688 64.6823 172.531 64.2656C172.271 63.4844 171.802 62.4948 171.125 61.2969C172.635 61.6615 173.964 62.026 175.109 62.3906C175.682 62.599 176.203 62.8073 176.672 63.0156C177.193 63.224 177.792 63.4583 178.469 63.7188C179.042 63.9792 179.771 64.2917 180.656 64.6562C181.542 65.0208 182.583 65.4635 183.781 65.9844C182.635 66.1927 181.802 66.5312 181.281 67C180.969 67.2083 180.734 67.4427 180.578 67.7031C180.214 68.276 179.797 69.0573 179.328 70.0469C178.859 70.9844 178.156 71.9219 177.219 72.8594C176.281 73.7969 175.005 74.6302 173.391 75.3594C171.828 76.0885 169.719 76.5052 167.062 76.6094C164.302 76.7135 162.193 76.2448 160.734 75.2031C159.328 74.1615 158.286 72.9635 157.609 71.6094C156.984 70.2031 156.62 68.8229 156.516 67.4688C156.411 66.1146 156.333 65.2031 156.281 64.7344C156.229 64.2656 156.229 63.0938 156.281 61.2188C156.333 59.3438 156.411 57.2865 156.516 55.0469C156.62 52.7552 156.724 50.5677 156.828 48.4844C156.932 46.349 156.984 44.7865 156.984 43.7969C156.984 43.276 157.01 42.7292 157.062 42.1562C157.062 41.6875 157.062 41.1927 157.062 40.6719C157.115 40.099 157.141 39.5521 157.141 39.0312L145.812 38.9531L145.344 34.5L156.75 34.8125C156.646 34.2396 156.516 33.7188 156.359 33.25C156.255 32.7292 156.151 32.3125 156.047 32C155.891 31.6354 155.734 31.3229 155.578 31.0625C155.37 30.8021 155.135 30.5156 154.875 30.2031C154.615 29.9427 154.276 29.6042 153.859 29.1875C153.443 28.7708 152.948 28.3021 152.375 27.7812ZM186.438 45.3594C186.698 45.0469 186.854 44.474 186.906 43.6406C187.01 42.7552 187.219 41.7656 187.531 40.6719C187.896 39.5781 188.495 38.4323 189.328 37.2344C190.161 36.0365 191.516 34.9167 193.391 33.875C195.214 32.8333 196.984 32.2083 198.703 32C200.422 31.7917 202.062 31.8698 203.625 32.2344C205.188 32.599 206.646 33.1719 208 33.9531C209.406 34.7344 210.682 35.5938 211.828 36.5312C212.609 37.1562 213.234 38.0677 213.703 39.2656C214.172 40.4115 214.536 41.7135 214.797 43.1719C215.057 44.6302 215.24 46.1667 215.344 47.7812C215.5 49.3438 215.604 50.8802 215.656 52.3906C215.708 53.849 215.734 55.2031 215.734 56.4531C215.786 57.651 215.891 58.6406 216.047 59.4219C216.255 60.5677 216.62 61.5573 217.141 62.3906C217.661 63.1719 218.234 63.849 218.859 64.4219C219.484 64.9427 220.109 65.3594 220.734 65.6719C221.359 65.9844 221.906 66.2188 222.375 66.375C222.688 66.5312 222.974 66.6354 223.234 66.6875C223.755 66.8958 224.12 66.8958 224.328 66.6875C224.016 67.4167 223.729 68.0417 223.469 68.5625C223.208 69.0833 223 69.526 222.844 69.8906C222.635 70.3073 222.453 70.6458 222.297 70.9062C222.141 71.2188 221.958 71.5052 221.75 71.7656C221.594 72.026 221.385 72.3125 221.125 72.625C220.865 72.9375 220.604 73.276 220.344 73.6406C219.667 73.3802 219.016 73.0677 218.391 72.7031C217.818 72.3385 217.297 72 216.828 71.6875C216.255 71.3229 215.734 70.9583 215.266 70.5938C214.797 70.2292 214.354 69.8125 213.938 69.3438C213.573 68.9271 213.182 68.4844 212.766 68.0156C212.401 67.5469 212.089 67.026 211.828 66.4531C211.516 67.1302 210.76 68.0938 209.562 69.3438C208.417 70.5938 206.906 71.7396 205.031 72.7812C203.156 73.7708 200.969 74.474 198.469 74.8906C196.021 75.3073 193.312 75.0208 190.344 74.0312C189.042 73.6146 187.818 73.0156 186.672 72.2344C185.526 71.401 184.536 70.4115 183.703 69.2656C182.922 68.1198 182.349 66.8177 181.984 65.3594C181.672 63.849 181.698 62.1823 182.062 60.3594C182.427 58.5365 183.078 57 184.016 55.75C184.953 54.5 186.073 53.4844 187.375 52.7031C188.677 51.9219 190.135 51.3229 191.75 50.9062C193.365 50.4896 195.031 50.2031 196.75 50.0469C198.104 49.9948 199.458 50.0729 200.812 50.2812C201.958 50.4896 203.156 50.8802 204.406 51.4531C205.656 51.974 206.724 52.7812 207.609 53.875C207.557 51.1146 207.453 48.9271 207.297 47.3125C207.193 45.6458 207.089 44.3698 206.984 43.4844C206.776 42.4427 206.594 41.7135 206.438 41.2969C206.177 40.9323 205.891 40.5156 205.578 40.0469C205.318 39.5781 204.979 39.1615 204.562 38.7969C204.146 38.3802 203.625 38.0417 203 37.7812C202.375 37.5208 201.646 37.4167 200.812 37.4688C199.927 37.5208 199.224 37.7552 198.703 38.1719C198.182 38.5885 197.766 39.0833 197.453 39.6562C197.193 40.1771 197.036 40.75 196.984 41.375C196.932 42 196.958 42.5469 197.062 43.0156C197.167 43.3281 197.323 43.6667 197.531 44.0312C197.74 44.3438 198.026 44.6823 198.391 45.0469C198.755 45.4115 199.25 45.724 199.875 45.9844C198.677 46.1406 197.609 46.2708 196.672 46.375C195.734 46.4271 194.927 46.5052 194.25 46.6094C193.469 46.7135 192.792 46.7917 192.219 46.8438C191.646 46.8958 190.969 47 190.188 47.1562C189.51 47.2604 188.677 47.3906 187.688 47.5469C186.698 47.7031 185.552 47.9115 184.25 48.1719C184.562 47.8073 184.849 47.4688 185.109 47.1562C185.37 46.7917 185.604 46.4792 185.812 46.2188C186.021 45.9062 186.229 45.6198 186.438 45.3594ZM198.156 54.6562C197.219 54.7083 196.281 54.9427 195.344 55.3594C194.406 55.724 193.573 56.2708 192.844 57C192.115 57.6771 191.49 58.4844 190.969 59.4219C190.5 60.3073 190.266 61.2969 190.266 62.3906C190.266 63.4844 190.526 64.4479 191.047 65.2812C191.62 66.0625 192.349 66.7135 193.234 67.2344C194.172 67.7552 195.161 68.0677 196.203 68.1719C197.297 68.276 198.365 68.1719 199.406 67.8594C200.396 67.4948 201.333 66.9219 202.219 66.1406C203.104 65.3073 203.859 64.4219 204.484 63.4844C205.109 62.4948 205.552 61.5312 205.812 60.5938C206.073 59.6042 206.099 58.7969 205.891 58.1719C205.474 56.8177 204.536 55.8802 203.078 55.3594C201.62 54.7865 199.979 54.5521 198.156 54.6562ZM225.969 68.4062C226.333 66.6875 226.594 65.1771 226.75 63.875C226.958 62.5208 227.115 61.401 227.219 60.5156C227.323 59.474 227.375 58.5885 227.375 57.8594C227.323 56.974 227.271 55.9323 227.219 54.7344C227.219 53.4844 227.167 52.2604 227.062 51.0625C227.01 49.8125 226.932 48.7188 226.828 47.7812C226.724 46.7917 226.594 46.0885 226.438 45.6719C226.229 45.2552 225.943 44.8125 225.578 44.3438C224.849 43.4583 223.781 42.599 222.375 41.7656C223.573 41.5052 224.589 41.2969 225.422 41.1406C226.307 40.9323 227.036 40.75 227.609 40.5938C228.234 40.3854 228.781 40.2031 229.25 40.0469C229.667 39.8906 230.161 39.7344 230.734 39.5781C231.203 39.474 231.776 39.3438 232.453 39.1875C233.13 39.0312 233.911 38.849 234.797 38.6406L234.562 45.75C236.229 43.7708 237.922 42.2865 239.641 41.2969C241.359 40.3073 242.974 39.6042 244.484 39.1875C246.203 38.6667 247.896 38.4062 249.562 38.4062C251.646 38.5104 253.573 38.849 255.344 39.4219C257.167 39.9948 258.729 40.6719 260.031 41.4531C261.385 42.1823 262.479 42.9635 263.312 43.7969C264.146 44.6302 264.641 45.3594 264.797 45.9844C265.422 48.0156 265.578 49.8906 265.266 51.6094C264.953 53.276 264.536 54.9167 264.016 56.5312C263.547 58.0938 263.13 59.6562 262.766 61.2188C262.453 62.7812 262.583 64.474 263.156 66.2969C263.365 66.7656 263.573 67.2344 263.781 67.7031C263.99 68.1198 264.25 68.5365 264.562 68.9531C264.875 69.3698 265.24 69.7083 265.656 69.9688C265.083 69.9167 264.51 69.8906 263.938 69.8906C263.365 69.8385 262.844 69.7865 262.375 69.7344C261.802 69.6823 261.281 69.6302 260.812 69.5781C260.292 69.526 259.589 69.5 258.703 69.5C257.193 69.5 254.849 69.5781 251.672 69.7344C252.141 68.6406 252.505 67.7292 252.766 67C253.078 66.2188 253.339 65.5938 253.547 65.125C253.755 64.5521 253.911 64.1094 254.016 63.7969C254.641 62.2865 255.005 60.5677 255.109 58.6406C255.266 56.7135 255.135 54.7604 254.719 52.7812C254.562 52.1042 254.302 51.2969 253.938 50.3594C253.573 49.4219 253.078 48.5104 252.453 47.625C251.88 46.7396 251.177 45.9844 250.344 45.3594C249.562 44.7344 248.651 44.3698 247.609 44.2656C246.568 44.1615 245.396 44.4219 244.094 45.0469C242.844 45.6719 241.49 46.8177 240.031 48.4844C238.938 49.8906 238.078 51.6094 237.453 53.6406C236.88 55.3594 236.49 57.5208 236.281 60.125C236.073 62.6771 236.385 65.6719 237.219 69.1094C236.49 69.0052 235.812 68.9531 235.188 68.9531C234.562 68.901 234.042 68.849 233.625 68.7969C233.104 68.7448 232.635 68.6927 232.219 68.6406C231.75 68.6406 231.229 68.6146 230.656 68.5625C230.135 68.5625 229.484 68.5625 228.703 68.5625C227.922 68.5104 227.01 68.4583 225.969 68.4062ZM269.641 20.6719C270.214 20.9323 270.891 21.1146 271.672 21.2188C272.505 21.3229 273.286 21.375 274.016 21.375C274.901 21.375 275.812 21.349 276.75 21.2969C277.688 21.2448 278.833 21.1406 280.188 20.9844C281.281 20.8802 282.635 20.75 284.25 20.5938C285.865 20.4375 287.661 20.2292 289.641 19.9688C288.911 20.3333 288.286 20.724 287.766 21.1406C287.245 21.5573 286.802 21.974 286.438 22.3906C286.021 22.8594 285.682 23.3281 285.422 23.7969C285.057 24.4219 284.562 25.5156 283.938 27.0781C283.365 28.5885 282.766 30.2812 282.141 32.1562C281.568 34.0312 281.047 35.9323 280.578 37.8594C280.161 39.7865 279.927 41.4271 279.875 42.7812C279.823 43.9271 279.771 45.2292 279.719 46.6875C279.667 47.9375 279.615 49.474 279.562 51.2969C279.51 53.1198 279.458 55.2031 279.406 57.5469C283.156 54.8385 286.047 52.6771 288.078 51.0625C290.109 49.3958 291.594 48.1198 292.531 47.2344C293.625 46.2448 294.276 45.5417 294.484 45.125C294.432 44.8125 294.302 44.474 294.094 44.1094C293.833 43.7969 293.469 43.4323 293 43.0156C292.531 42.599 291.828 42.1302 290.891 41.6094C292.245 41.7656 293.417 41.8698 294.406 41.9219C295.448 41.974 296.333 42.026 297.062 42.0781C297.896 42.1302 298.625 42.1302 299.25 42.0781C299.927 42.0781 300.76 42.0521 301.75 42C303.469 41.9479 306.125 41.8698 309.719 41.7656C306.229 43.5885 303.469 45.151 301.438 46.4531C300.292 47.1823 299.276 47.8594 298.391 48.4844C297.505 49.1615 296.594 49.8646 295.656 50.5938C294.823 51.2188 293.859 51.9479 292.766 52.7812C291.724 53.6146 290.682 54.5 289.641 55.4375C291.464 58.4062 293.052 60.8542 294.406 62.7812C295.812 64.7083 296.984 66.2708 297.922 67.4688C299.016 68.875 299.979 69.9948 300.812 70.8281C301.646 71.6094 302.74 72.4948 304.094 73.4844C305.24 74.3698 306.724 75.4115 308.547 76.6094C310.422 77.7552 312.688 79.0833 315.344 80.5938C313.99 80.3333 312.688 80.151 311.438 80.0469C310.188 79.9948 309.12 79.9948 308.234 80.0469C307.141 80.099 306.151 80.2031 305.266 80.3594C304.328 80.5677 303.286 80.8281 302.141 81.1406C301.151 81.401 299.979 81.7396 298.625 82.1562C297.323 82.625 295.891 83.224 294.328 83.9531C295.318 83.224 296.047 82.5208 296.516 81.8438C297.036 81.2188 297.401 80.6979 297.609 80.2812C297.818 79.7604 297.896 79.3177 297.844 78.9531C297.583 78.4323 296.984 77.3646 296.047 75.75C295.161 74.3958 293.859 72.4167 292.141 69.8125C290.422 67.2083 287.974 63.6667 284.797 59.1875C284.641 59.2396 284.38 59.3958 284.016 59.6562C283.703 59.9167 283.234 60.2812 282.609 60.75C281.984 61.1667 281.151 61.7917 280.109 62.625L282.219 76.2969C281.75 76.5052 281.229 76.6875 280.656 76.8438C280.135 77 279.641 77.1302 279.172 77.2344C278.599 77.3906 278.026 77.4948 277.453 77.5469C276.88 77.599 276.203 77.7031 275.422 77.8594C274.745 77.9635 273.938 78.0938 273 78.25C272.062 78.4583 270.995 78.6927 269.797 78.9531C270.474 78.4844 271.021 77.9375 271.438 77.3125C271.854 76.7396 272.193 76.1927 272.453 75.6719C272.714 75.099 272.948 74.5 273.156 73.875C273.26 73.3542 273.365 72 273.469 69.8125C273.625 67.625 273.755 65.0208 273.859 62C273.964 58.9271 274.042 55.6458 274.094 52.1562C274.198 48.6667 274.25 45.3854 274.25 42.3125C274.25 39.1875 274.224 36.4792 274.172 34.1875C274.12 31.8438 274.016 30.3333 273.859 29.6562C273.599 28.8229 273.286 27.9375 272.922 27C272.609 26.1667 272.167 25.2292 271.594 24.1875C271.073 23.0938 270.422 21.9219 269.641 20.6719ZM327.219 64.4219C328.677 64.4219 330.031 64.2656 331.281 63.9531C332.323 63.6927 333.312 63.276 334.25 62.7031C335.24 62.0781 335.891 61.1667 336.203 59.9688C337.245 60.1771 338.13 60.3594 338.859 60.5156C339.589 60.6198 340.214 60.724 340.734 60.8281C341.307 60.9844 341.802 61.0885 342.219 61.1406C342.635 61.2448 343.13 61.349 343.703 61.4531C344.224 61.5573 344.849 61.6875 345.578 61.8438C346.359 61.9479 347.271 62.1042 348.312 62.3125C347.531 62.2083 346.724 62.2865 345.891 62.5469C345.109 62.8073 344.354 63.0938 343.625 63.4062C342.792 63.7708 342.01 64.2135 341.281 64.7344C340.812 65.0469 340.266 65.5156 339.641 66.1406C339.068 66.7656 338.234 67.3646 337.141 67.9375C336.047 68.5104 334.589 69.0052 332.766 69.4219C330.995 69.7865 328.703 69.9167 325.891 69.8125C322.505 69.7083 319.667 69.1094 317.375 68.0156C315.083 66.8698 313.234 65.4896 311.828 63.875C310.422 62.2083 309.406 60.4115 308.781 58.4844C308.156 56.5573 307.818 54.7604 307.766 53.0938C307.714 51.4271 308.208 49.6823 309.25 47.8594C310.292 46.0365 311.75 44.3698 313.625 42.8594C315.552 41.349 317.87 40.125 320.578 39.1875C323.286 38.1979 326.255 37.7031 329.484 37.7031C331.359 37.7031 333.078 37.9375 334.641 38.4062C336.255 38.8229 337.714 39.3958 339.016 40.125C340.37 40.8542 341.542 41.6875 342.531 42.625C343.521 43.5104 344.354 44.4219 345.031 45.3594C345.708 46.349 346.281 47.3906 346.75 48.4844C347.167 49.4219 347.505 50.4896 347.766 51.6875C348.026 52.8854 348.104 54.1094 348 55.3594C344.042 55.4635 340.839 55.5417 338.391 55.5938C335.995 55.6458 334.12 55.6719 332.766 55.6719H329.25H326.594C325.656 55.6719 324.432 55.6979 322.922 55.75C321.411 55.8021 319.562 55.8802 317.375 55.9844C317.635 58.0677 318.286 59.6823 319.328 60.8281C320.422 61.9219 321.568 62.7552 322.766 63.3281C324.12 63.9531 325.604 64.3177 327.219 64.4219ZM320.188 50.3594C321.854 50.4635 323.234 50.5417 324.328 50.5938C325.474 50.6458 326.411 50.6979 327.141 50.75C327.922 50.8021 328.547 50.8281 329.016 50.8281H330.969C332.271 50.8281 334.693 50.75 338.234 50.5938C338.078 48.3021 337.583 46.5573 336.75 45.3594C335.969 44.1615 335.135 43.276 334.25 42.7031C333.208 42.0781 332.062 41.7135 330.812 41.6094C327.427 41.6615 324.901 42.3646 323.234 43.7188C321.62 45.0729 320.604 47.2865 320.188 50.3594ZM350.344 39.5781C351.333 39.6302 352.219 39.6562 353 39.6562C353.833 39.6042 354.536 39.5521 355.109 39.5C355.786 39.4479 356.385 39.3958 356.906 39.3438C357.688 39.2396 358.495 39.1094 359.328 38.9531C360.057 38.849 360.812 38.7188 361.594 38.5625C362.427 38.3542 363.234 38.1198 364.016 37.8594C363.703 38.6406 363.443 39.3177 363.234 39.8906C363.026 40.4635 362.87 40.9583 362.766 41.375C362.609 41.8438 362.531 42.2344 362.531 42.5469C362.479 42.9115 362.453 43.3542 362.453 43.875C362.401 44.7604 362.401 46.1927 362.453 48.1719C365.161 45.8281 367.427 44.0052 369.25 42.7031C371.125 41.401 372.609 40.3854 373.703 39.6562C375.005 38.8229 376.021 38.276 376.75 38.0156C378.677 37.7031 380.37 38.1458 381.828 39.3438C382.453 39.8646 383.052 40.5677 383.625 41.4531C384.198 42.2865 384.693 43.4062 385.109 44.8125C385.526 46.2188 385.839 47.9115 386.047 49.8906C386.255 51.8177 386.281 54.1354 386.125 56.8438C385.031 56.9479 384.042 57.0521 383.156 57.1562C382.323 57.2604 381.62 57.3385 381.047 57.3906C380.37 57.4948 379.745 57.5469 379.172 57.5469L377.062 57.7812C376.333 57.8854 375.422 57.9896 374.328 58.0938C373.286 58.1458 372.01 58.25 370.5 58.4062C372.688 56.6354 374.094 55.099 374.719 53.7969C375.396 52.4427 375.682 51.3229 375.578 50.4375C375.474 49.4479 375.005 48.5885 374.172 47.8594C373.182 47.2865 372.115 47.0781 370.969 47.2344C369.979 47.3385 368.833 47.7812 367.531 48.5625C366.229 49.3438 364.849 50.8021 363.391 52.9375C363.495 56.2708 363.599 59.0312 363.703 61.2188C363.859 63.4062 363.99 65.1771 364.094 66.5312C364.25 68.0938 364.38 69.3177 364.484 70.2031C364.641 70.9844 364.953 71.8177 365.422 72.7031C365.786 73.4323 366.307 74.2396 366.984 75.125C367.661 76.0104 368.547 76.8958 369.641 77.7812C367.349 77.6771 365.474 77.6771 364.016 77.7812C363.13 77.8333 362.349 77.8854 361.672 77.9375C360.943 78.0417 360.161 78.1458 359.328 78.25C358.599 78.3542 357.74 78.4583 356.75 78.5625C355.812 78.7188 354.771 78.875 353.625 79.0312C354.042 78.4583 354.38 77.7812 354.641 77C354.901 76.2708 355.109 75.5677 355.266 74.8906C355.474 74.1094 355.63 73.3021 355.734 72.4688C355.786 71.7396 355.812 70.6458 355.812 69.1875C355.865 67.7292 355.839 66.0885 355.734 64.2656C355.682 62.3906 355.604 60.4635 355.5 58.4844C355.396 56.4531 355.266 54.5521 355.109 52.7812C354.953 51.0104 354.771 49.474 354.562 48.1719C354.406 46.8177 354.224 45.8802 354.016 45.3594C353.755 44.7344 353.443 44.1094 353.078 43.4844C352.766 42.9115 352.375 42.3125 351.906 41.6875C351.438 41.0104 350.917 40.3073 350.344 39.5781Z" fill="#323540"/>
</g>
<defs>
<filter id="filter0_i_32_100" x="83" y="13" width="94" height="94" filterUnits="userSpaceOnUse" color-interpolation-filters="sRGB">
<feFlood flood-opacity="0" result="BackgroundImageFix"/>
<feBlend mode="normal" in="SourceGraphic" in2="BackgroundImageFix" result="shape"/>
<feColorMatrix in="SourceAlpha" type="matrix" values="0 0 0 0 0 0 0 0 0 0 0 0 0 0 0 0 0 0 127 0" result="hardAlpha"/>
<feOffset/>
<feGaussianBlur stdDeviation="5"/>
<feComposite in2="hardAlpha" operator="arithmetic" k2="-1" k3="1"/>
<feColorMatrix type="matrix" values="0 0 0 0 0 0 0 0 0 0 0 0 0 0 0 0 0 0 0.25 0"/>
<feBlend mode="normal" in2="shape" result="effect1_innerShadow_32_100"/>
</filter>
<filter id="filter1_d_32_100" x="0.828125" y="17.9688" width="391.531" height="83.4844" filterUnits="userSpaceOnUse" color-interpolation-filters="sRGB">
<feFlood flood-opacity="0" result="BackgroundImageFix"/>
<feColorMatrix in="SourceAlpha" type="matrix" values="0 0 0 0 0 0 0 0 0 0 0 0 0 0 0 0 0 0 127 0" result="hardAlpha"/>
<feOffset dy="4"/>
<feGaussianBlur stdDeviation="3"/>
<feComposite in2="hardAlpha" operator="out"/>
<feColorMatrix type="matrix" values="0 0 0 0 0 0 0 0 0 0 0 0 0 0 0 0 0 0 0.3 0"/>
<feBlend mode="normal" in2="BackgroundImageFix" result="effect1_dropShadow_32_100"/>
<feBlend mode="normal" in="SourceGraphic" in2="effect1_dropShadow_32_100" result="shape"/>
</filter>
</defs>
</svg>
